<svg width="36" height="36" viewBox="0 0 36 36" fill="none" xmlns="http://www.w3.org/2000/svg">
<rect width="36" height="36" rx="10" fill="#2F5ED9"/>
<path fill-rule="evenodd" clip-rule="evenodd" d="M19.6668 28C19.6458 28 19.6258 27.999 19.6058 27.998C19.1538 27.971 18.7768 27.643 18.6868 27.199L17.1488 19.632C17.0688 19.238 16.7618 18.931 16.3678 18.851L8.8008 17.312C8.3568 17.223 8.0288 16.846 8.0018 16.394C7.9748 15.941 8.2538 15.527 8.6838 15.385L24.6838 10.052C25.0428 9.93 25.4388 10.024 25.7068 10.293C25.9748 10.561 26.0678 10.957 25.9488 11.316L20.6148 27.316C20.4788 27.727 20.0948 28 19.6668 28Z" fill="white"/>
<mask id="mask0_2315_49181" style="mask-type:luminance" maskUnits="userSpaceOnUse" x="8" y="9" width="18" height="19">
<path fill-rule="evenodd" clip-rule="evenodd" d="M19.6668 28C19.6458 28 19.6258 27.999 19.6058 27.998C19.1538 27.971 18.7768 27.643 18.6868 27.199L17.1488 19.632C17.0688 19.238 16.7618 18.931 16.3678 18.851L8.8008 17.312C8.3568 17.223 8.0288 16.846 8.0018 16.394C7.9748 15.941 8.2538 15.527 8.6838 15.385L24.6838 10.052C25.0428 9.93 25.4388 10.024 25.7068 10.293C25.9748 10.561 26.0678 10.957 25.9488 11.316L20.6148 27.316C20.4788 27.727 20.0948 28 19.6668 28Z" fill="white"/>
</mask>
<g mask="url(#mask0_2315_49181)">
<rect x="6" y="6" width="24" height="24" fill="white"/>
</g>
</svg>
