<svg width="36" height="36" viewBox="0 0 36 36" fill="none" xmlns="http://www.w3.org/2000/svg">
<rect width="36" height="36" rx="10" fill="#2F5ED9"/>
<path fill-rule="evenodd" clip-rule="evenodd" d="M29.2795 7.6401C29.4395 7.6801 29.5195 7.8001 29.5995 7.9601C29.6395 8.0401 29.6395 8.1201 29.5995 8.2001V11.0401C29.5995 11.3601 29.3195 11.6401 28.9995 11.6401C28.6795 11.6401 28.3995 11.3601 28.3995 11.0401V9.6801L25.5995 12.4801C27.7595 15.0801 27.6395 18.9201 25.1995 21.3601C23.9195 22.6001 22.2395 23.2801 20.5195 23.2801C19.6395 23.2801 18.7995 23.1201 17.9595 22.7601C17.6395 22.6001 17.5195 22.2801 17.6395 21.9601C17.7995 21.6401 18.1195 21.5201 18.4395 21.6401C20.4395 22.4801 22.7595 22.0401 24.3195 20.4801C25.3595 19.4801 25.9195 18.1201 25.9195 16.6801C25.9195 15.2401 25.3195 13.9201 24.3195 12.8801C23.3195 11.8401 21.9595 11.2801 20.5195 11.2801C19.0795 11.2801 17.7195 11.8801 16.7195 12.8801C14.9995 14.5601 14.6395 17.2401 15.7995 19.3201C15.9595 19.6001 15.8395 19.9601 15.5595 20.1201C15.2795 20.2801 14.9195 20.1601 14.7595 19.8801C13.3595 17.3201 13.7995 14.0801 15.8795 12.0001C18.3195 9.5601 22.1595 9.4401 24.7595 11.6001L27.5595 8.8001H26.1995C25.8795 8.8001 25.5995 8.5201 25.5995 8.2001C25.5995 7.8801 25.8795 7.6001 26.1995 7.6001H29.0795C29.1195 7.6001 29.1995 7.6001 29.2795 7.6401ZM18.32 13.4801C18.88 14.4401 19.16 15.5601 19.16 16.6801C19.16 20.1201 16.52 22.9601 13.16 23.2401V24.0801H14.56C14.88 24.0801 15.16 24.3601 15.16 24.6801C15.16 25.0001 14.88 25.2801 14.56 25.2801H13.16V27.2401L14.04 26.2801C14.28 26.0401 14.64 26.0401 14.88 26.2801C15.12 26.5201 15.12 26.8801 14.88 27.1201L12.92 29.0801C12.88 29.1201 12.8 29.1601 12.72 29.2001C12.68 29.2401 12.56 29.2401 12.52 29.2401C12.48 29.2401 12.4 29.2401 12.32 29.2001C12.24 29.2001 12.16 29.1201 12.12 29.0801L10.16 27.1201C9.92 26.8801 9.92 26.5201 10.16 26.2801C10.4 26.0401 10.76 26.0401 11 26.2801L12 27.2401V25.2801H10.6C10.28 25.2801 10 25.0001 10 24.6801C10 24.3601 10.28 24.0801 10.6 24.0801H12V23.2401C8.64 22.9601 6 20.1201 6 16.6801C6 13.0401 8.96 10.0801 12.6 10.0801C13.48 10.0801 14.36 10.2401 15.16 10.6001C15.48 10.7601 15.6 11.0801 15.48 11.4001C15.32 11.7201 15 11.8401 14.68 11.7201C14 11.4401 13.28 11.2801 12.56 11.2801C9.6 11.2801 7.16 13.7201 7.16 16.6801C7.16 19.6401 9.6 22.0801 12.56 22.0801C15.52 22.0801 17.96 19.6401 17.96 16.6801C17.96 15.7601 17.72 14.8401 17.28 14.0401C17.12 13.7601 17.24 13.4001 17.52 13.2401C17.8 13.0801 18.16 13.2001 18.32 13.4801Z" fill="white"/>
<mask id="mask0_2315_49164" style="mask-type:luminance" maskUnits="userSpaceOnUse" x="6" y="7" width="24" height="23">
<path fill-rule="evenodd" clip-rule="evenodd" d="M29.2795 7.6401C29.4395 7.6801 29.5195 7.8001 29.5995 7.9601C29.6395 8.0401 29.6395 8.1201 29.5995 8.2001V11.0401C29.5995 11.3601 29.3195 11.6401 28.9995 11.6401C28.6795 11.6401 28.3995 11.3601 28.3995 11.0401V9.6801L25.5995 12.4801C27.7595 15.0801 27.6395 18.9201 25.1995 21.3601C23.9195 22.6001 22.2395 23.2801 20.5195 23.2801C19.6395 23.2801 18.7995 23.1201 17.9595 22.7601C17.6395 22.6001 17.5195 22.2801 17.6395 21.9601C17.7995 21.6401 18.1195 21.5201 18.4395 21.6401C20.4395 22.4801 22.7595 22.0401 24.3195 20.4801C25.3595 19.4801 25.9195 18.1201 25.9195 16.6801C25.9195 15.2401 25.3195 13.9201 24.3195 12.8801C23.3195 11.8401 21.9595 11.2801 20.5195 11.2801C19.0795 11.2801 17.7195 11.8801 16.7195 12.8801C14.9995 14.5601 14.6395 17.2401 15.7995 19.3201C15.9595 19.6001 15.8395 19.9601 15.5595 20.1201C15.2795 20.2801 14.9195 20.1601 14.7595 19.8801C13.3595 17.3201 13.7995 14.0801 15.8795 12.0001C18.3195 9.5601 22.1595 9.4401 24.7595 11.6001L27.5595 8.8001H26.1995C25.8795 8.8001 25.5995 8.5201 25.5995 8.2001C25.5995 7.8801 25.8795 7.6001 26.1995 7.6001H29.0795C29.1195 7.6001 29.1995 7.6001 29.2795 7.6401ZM18.32 13.4801C18.88 14.4401 19.16 15.5601 19.16 16.6801C19.16 20.1201 16.52 22.9601 13.16 23.2401V24.0801H14.56C14.88 24.0801 15.16 24.3601 15.16 24.6801C15.16 25.0001 14.88 25.2801 14.56 25.2801H13.16V27.2401L14.04 26.2801C14.28 26.0401 14.64 26.0401 14.88 26.2801C15.12 26.5201 15.12 26.8801 14.88 27.1201L12.92 29.0801C12.88 29.1201 12.8 29.1601 12.72 29.2001C12.68 29.2401 12.56 29.2401 12.52 29.2401C12.48 29.2401 12.4 29.2401 12.32 29.2001C12.24 29.2001 12.16 29.1201 12.12 29.0801L10.16 27.1201C9.92 26.8801 9.92 26.5201 10.16 26.2801C10.4 26.0401 10.76 26.0401 11 26.2801L12 27.2401V25.2801H10.6C10.28 25.2801 10 25.0001 10 24.6801C10 24.3601 10.28 24.0801 10.6 24.0801H12V23.2401C8.64 22.9601 6 20.1201 6 16.6801C6 13.0401 8.96 10.0801 12.6 10.0801C13.48 10.0801 14.36 10.2401 15.16 10.6001C15.48 10.7601 15.6 11.0801 15.48 11.4001C15.32 11.7201 15 11.8401 14.68 11.7201C14 11.4401 13.28 11.2801 12.56 11.2801C9.6 11.2801 7.16 13.7201 7.16 16.6801C7.16 19.6401 9.6 22.0801 12.56 22.0801C15.52 22.0801 17.96 19.6401 17.96 16.6801C17.96 15.7601 17.72 14.8401 17.28 14.0401C17.12 13.7601 17.24 13.4001 17.52 13.2401C17.8 13.0801 18.16 13.2001 18.32 13.4801Z" fill="white"/>
</mask>
<g mask="url(#mask0_2315_49164)">
<rect x="-5.2002" y="3.6001" width="46.08" height="28.8" fill="white"/>
</g>
</svg>
