<svg width="36" height="36" viewBox="0 0 36 36" fill="none" xmlns="http://www.w3.org/2000/svg">
<rect width="36" height="36" rx="10" fill="#2F5ED9"/>
<path fill-rule="evenodd" clip-rule="evenodd" d="M26 15H10V14C10 13.449 10.448 13 11 13H25C25.552 13 26 13.449 26 14V15ZM23 21H21C20.45 21 20 20.55 20 20C20 19.45 20.45 19 21 19H23C23.55 19 24 19.45 24 20C24 20.55 23.55 21 23 21ZM17 21H13C12.45 21 12 20.55 12 20C12 19.45 12.45 19 13 19H17C17.55 19 18 19.45 18 20C18 20.55 17.55 21 17 21ZM25 11H11C9.346 11 8 12.346 8 14V22C8 23.654 9.346 25 11 25H25C26.654 25 28 23.654 28 22V14C28 12.346 26.654 11 25 11Z" fill="white"/>
<mask id="mask0_2315_49148" style="mask-type:luminance" maskUnits="userSpaceOnUse" x="8" y="11" width="20" height="14">
<path fill-rule="evenodd" clip-rule="evenodd" d="M26 15H10V14C10 13.449 10.448 13 11 13H25C25.552 13 26 13.449 26 14V15ZM23 21H21C20.45 21 20 20.55 20 20C20 19.45 20.45 19 21 19H23C23.55 19 24 19.45 24 20C24 20.55 23.55 21 23 21ZM17 21H13C12.45 21 12 20.55 12 20C12 19.45 12.45 19 13 19H17C17.55 19 18 19.45 18 20C18 20.55 17.55 21 17 21ZM25 11H11C9.346 11 8 12.346 8 14V22C8 23.654 9.346 25 11 25H25C26.654 25 28 23.654 28 22V14C28 12.346 26.654 11 25 11Z" fill="white"/>
</mask>
<g mask="url(#mask0_2315_49148)">
<rect x="6" y="6" width="24" height="24" fill="white"/>
</g>
</svg>
