<svg width="36" height="36" viewBox="0 0 36 36" fill="none" xmlns="http://www.w3.org/2000/svg">
<rect width="36" height="36" rx="10" fill="#2F5ED9"/>
<path fill-rule="evenodd" clip-rule="evenodd" d="M11 13.4124C11 9.32518 14.3644 6.00024 18.4998 6.00024C22.6356 6.00024 26 9.32519 26 13.4124C26 14.6714 25.6755 15.9095 25.0619 16.9958C25.0565 17.0073 25.0503 17.0181 25.0434 17.0282L19.2536 25.6007C19.085 25.8505 18.8028 26.0002 18.4991 26.0002C18.195 26.0002 17.9128 25.8505 17.7442 25.6007L11.9545 17.0282C11.9439 17.0123 11.9352 16.9965 11.9286 16.9792C11.3212 15.8973 11 14.6642 11 13.4124ZM18.2413 10.1422C15.9853 10.2833 14.2661 12.2125 14.4092 14.4418C14.5465 16.584 16.3542 18.2368 18.4969 18.2368C18.5836 18.2368 18.671 18.2339 18.7587 18.2289C21.0147 18.0871 22.7335 16.1586 22.5904 13.9293C22.5216 12.8495 22.031 11.8612 21.2095 11.1457C20.3883 10.4309 19.3366 10.0796 18.2413 10.1422ZM23.3438 10.0198C22.476 8.70108 21.011 7.87471 19.4251 7.8092C19.2966 7.79841 19.1593 7.91286 19.1535 8.0561C19.1473 8.19863 19.2591 8.31885 19.4033 8.3246C20.8206 8.38362 22.1301 9.12218 22.9061 10.3006C22.9564 10.3769 23.0398 10.4179 23.1253 10.4179C23.1741 10.4179 23.2233 10.4049 23.2674 10.3761C23.3883 10.2984 23.4225 10.1386 23.3438 10.0198ZM23.8613 13.1144H23.8726C24.0117 13.1144 24.1271 13.0064 24.133 12.8675C24.1548 12.3463 24.0933 11.8302 23.9498 11.3342C23.9101 11.1968 23.7655 11.1169 23.6271 11.1564C23.4884 11.196 23.4083 11.3386 23.448 11.4753C23.5758 11.9188 23.6308 12.3802 23.6115 12.8459C23.6053 12.9884 23.7175 13.1087 23.8613 13.1144ZM16 28.9998C16 28.2107 17.5714 28.0002 18.5002 28.0002C19.4286 28.0002 21 28.2107 21 28.9998C21 29.7898 19.4286 30.0002 18.5002 30.0002C17.5714 30.0002 16 29.7898 16 28.9998Z" fill="white"/>
<mask id="mask0_2315_49186" style="mask-type:luminance" maskUnits="userSpaceOnUse" x="11" y="6" width="15" height="25">
<path fill-rule="evenodd" clip-rule="evenodd" d="M11 13.4124C11 9.32518 14.3644 6.00024 18.4998 6.00024C22.6356 6.00024 26 9.32519 26 13.4124C26 14.6714 25.6755 15.9095 25.0619 16.9958C25.0565 17.0073 25.0503 17.0181 25.0434 17.0282L19.2536 25.6007C19.085 25.8505 18.8028 26.0002 18.4991 26.0002C18.195 26.0002 17.9128 25.8505 17.7442 25.6007L11.9545 17.0282C11.9439 17.0123 11.9352 16.9965 11.9286 16.9792C11.3212 15.8973 11 14.6642 11 13.4124ZM18.2413 10.1422C15.9853 10.2833 14.2661 12.2125 14.4092 14.4418C14.5465 16.584 16.3542 18.2368 18.4969 18.2368C18.5836 18.2368 18.671 18.2339 18.7587 18.2289C21.0147 18.0871 22.7335 16.1586 22.5904 13.9293C22.5216 12.8495 22.031 11.8612 21.2095 11.1457C20.3883 10.4309 19.3366 10.0796 18.2413 10.1422ZM23.3438 10.0198C22.476 8.70108 21.011 7.87471 19.4251 7.8092C19.2966 7.79841 19.1593 7.91286 19.1535 8.0561C19.1473 8.19863 19.2591 8.31885 19.4033 8.3246C20.8206 8.38362 22.1301 9.12218 22.9061 10.3006C22.9564 10.3769 23.0398 10.4179 23.1253 10.4179C23.1741 10.4179 23.2233 10.4049 23.2674 10.3761C23.3883 10.2984 23.4225 10.1386 23.3438 10.0198ZM23.8613 13.1144H23.8726C24.0117 13.1144 24.1271 13.0064 24.133 12.8675C24.1548 12.3463 24.0933 11.8302 23.9498 11.3342C23.9101 11.1968 23.7655 11.1169 23.6271 11.1564C23.4884 11.196 23.4083 11.3386 23.448 11.4753C23.5758 11.9188 23.6308 12.3802 23.6115 12.8459C23.6053 12.9884 23.7175 13.1087 23.8613 13.1144ZM16 28.9998C16 28.2107 17.5714 28.0002 18.5002 28.0002C19.4286 28.0002 21 28.2107 21 28.9998C21 29.7898 19.4286 30.0002 18.5002 30.0002C17.5714 30.0002 16 29.7898 16 28.9998Z" fill="white"/>
</mask>
<g mask="url(#mask0_2315_49186)">
<rect x="4" y="3.60029" width="28.8" height="28.8" fill="white"/>
</g>
</svg>
