<svg width="36" height="36" viewBox="0 0 36 36" fill="none" xmlns="http://www.w3.org/2000/svg">
<rect width="36" height="36" rx="10" fill="#2F5ED9"/>
<path fill-rule="evenodd" clip-rule="evenodd" d="M25 23.4541L23 22.5561V12.5461L25 13.4441V23.4541ZM15 12.5461L17 13.4441V23.4541L15 22.5561V12.5461ZM26.41 11.8861L22.41 10.0881C22.395 10.0811 22.379 10.0801 22.364 10.0741C22.323 10.0581 22.282 10.0471 22.24 10.0361C22.201 10.0261 22.162 10.0171 22.122 10.0131C22.083 10.0081 22.044 10.0071 22.004 10.0071C21.96 10.0071 21.917 10.0081 21.873 10.0131C21.836 10.0171 21.801 10.0261 21.765 10.0351C21.721 10.0461 21.678 10.0581 21.635 10.0741C21.621 10.0801 21.604 10.0811 21.59 10.0881L18 11.7011L14.41 10.0881C14.395 10.0811 14.379 10.0801 14.364 10.0741C14.323 10.0581 14.282 10.0471 14.24 10.0361C14.201 10.0261 14.162 10.0171 14.122 10.0131C14.083 10.0081 14.044 10.0071 14.004 10.0071C13.96 10.0071 13.917 10.0081 13.873 10.0131C13.836 10.0171 13.801 10.0261 13.765 10.0351C13.721 10.0461 13.678 10.0581 13.635 10.0741C13.621 10.0801 13.604 10.0811 13.59 10.0881L9.59 11.8861C9.231 12.0471 9 12.4041 9 12.7981V25.0001C9 25.3391 9.172 25.6551 9.457 25.8401C9.621 25.9461 9.81 26.0001 10 26.0001C10.139 26.0001 10.279 25.9711 10.41 25.9121L14 24.2991L17.59 25.9121C17.605 25.9191 17.621 25.9161 17.637 25.9221C17.754 25.9691 17.875 26.0001 18 26.0001C18.125 26.0001 18.246 25.9691 18.363 25.9221C18.378 25.9161 18.396 25.9191 18.41 25.9121L22 24.2991L25.59 25.9121C25.721 25.9711 25.861 26.0001 26 26.0001C26.19 26.0001 26.379 25.9461 26.543 25.8401C26.828 25.6551 27 25.3391 27 25.0001V12.7981C27 12.4041 26.769 12.0471 26.41 11.8861Z" fill="white"/>
<mask id="mask0_2315_49208" style="mask-type:luminance" maskUnits="userSpaceOnUse" x="9" y="10" width="18" height="17">
<path fill-rule="evenodd" clip-rule="evenodd" d="M25 23.4541L23 22.5561V12.5461L25 13.4441V23.4541ZM15 12.5461L17 13.4441V23.4541L15 22.5561V12.5461ZM26.41 11.8861L22.41 10.0881C22.395 10.0811 22.379 10.0801 22.364 10.0741C22.323 10.0581 22.282 10.0471 22.24 10.0361C22.201 10.0261 22.162 10.0171 22.122 10.0131C22.083 10.0081 22.044 10.0071 22.004 10.0071C21.96 10.0071 21.917 10.0081 21.873 10.0131C21.836 10.0171 21.801 10.0261 21.765 10.0351C21.721 10.0461 21.678 10.0581 21.635 10.0741C21.621 10.0801 21.604 10.0811 21.59 10.0881L18 11.7011L14.41 10.0881C14.395 10.0811 14.379 10.0801 14.364 10.0741C14.323 10.0581 14.282 10.0471 14.24 10.0361C14.201 10.0261 14.162 10.0171 14.122 10.0131C14.083 10.0081 14.044 10.0071 14.004 10.0071C13.96 10.0071 13.917 10.0081 13.873 10.0131C13.836 10.0171 13.801 10.0261 13.765 10.0351C13.721 10.0461 13.678 10.0581 13.635 10.0741C13.621 10.0801 13.604 10.0811 13.59 10.0881L9.59 11.8861C9.231 12.0471 9 12.4041 9 12.7981V25.0001C9 25.3391 9.172 25.6551 9.457 25.8401C9.621 25.9461 9.81 26.0001 10 26.0001C10.139 26.0001 10.279 25.9711 10.41 25.9121L14 24.2991L17.59 25.9121C17.605 25.9191 17.621 25.9161 17.637 25.9221C17.754 25.9691 17.875 26.0001 18 26.0001C18.125 26.0001 18.246 25.9691 18.363 25.9221C18.378 25.9161 18.396 25.9191 18.41 25.9121L22 24.2991L25.59 25.9121C25.721 25.9711 25.861 26.0001 26 26.0001C26.19 26.0001 26.379 25.9461 26.543 25.8401C26.828 25.6551 27 25.3391 27 25.0001V12.7981C27 12.4041 26.769 12.0471 26.41 11.8861Z" fill="white"/>
</mask>
<g mask="url(#mask0_2315_49208)">
<rect x="6" y="6" width="24" height="24" fill="white"/>
</g>
</svg>
