<svg width="36" height="36" viewBox="0 0 36 36" fill="none" xmlns="http://www.w3.org/2000/svg">
<rect width="36" height="36" rx="10" fill="#2F5ED9"/>
<path fill-rule="evenodd" clip-rule="evenodd" d="M25 17H11V13C11 12.449 11.449 12 12 12H13V13C13 13.55 13.45 14 14 14C14.55 14 15 13.55 15 13V12H21V13C21 13.55 21.45 14 22 14C22.55 14 23 13.55 23 13V12H24C24.551 12 25 12.449 25 13V17ZM22 23H18C17.45 23 17 22.55 17 22C17 21.45 17.45 21 18 21H22C22.55 21 23 21.45 23 22C23 22.55 22.55 23 22 23ZM14 23C13.45 23 13 22.55 13 22C13 21.45 13.45 21 14 21C14.55 21 15 21.45 15 22C15 22.55 14.55 23 14 23ZM24 10H23V9C23 8.45 22.55 8 22 8C21.45 8 21 8.45 21 9V10H15V9C15 8.45 14.55 8 14 8C13.45 8 13 8.45 13 9V10H12C10.346 10 9 11.346 9 13V25C9 26.654 10.346 28 12 28H24C25.654 28 27 26.654 27 25V13C27 11.346 25.654 10 24 10Z" fill="white"/>
<mask id="mask0_2315_49175" style="mask-type:luminance" maskUnits="userSpaceOnUse" x="9" y="8" width="18" height="20">
<path fill-rule="evenodd" clip-rule="evenodd" d="M25 17H11V13C11 12.449 11.449 12 12 12H13V13C13 13.55 13.45 14 14 14C14.55 14 15 13.55 15 13V12H21V13C21 13.55 21.45 14 22 14C22.55 14 23 13.55 23 13V12H24C24.551 12 25 12.449 25 13V17ZM22 23H18C17.45 23 17 22.55 17 22C17 21.45 17.45 21 18 21H22C22.55 21 23 21.45 23 22C23 22.55 22.55 23 22 23ZM14 23C13.45 23 13 22.55 13 22C13 21.45 13.45 21 14 21C14.55 21 15 21.45 15 22C15 22.55 14.55 23 14 23ZM24 10H23V9C23 8.45 22.55 8 22 8C21.45 8 21 8.45 21 9V10H15V9C15 8.45 14.55 8 14 8C13.45 8 13 8.45 13 9V10H12C10.346 10 9 11.346 9 13V25C9 26.654 10.346 28 12 28H24C25.654 28 27 26.654 27 25V13C27 11.346 25.654 10 24 10Z" fill="white"/>
</mask>
<g mask="url(#mask0_2315_49175)">
<rect x="6" y="6" width="24" height="24" fill="white"/>
</g>
</svg>
