<svg width="25" height="24" viewBox="0 0 25 24" fill="none" xmlns="http://www.w3.org/2000/svg">
<path fill-rule="evenodd" clip-rule="evenodd" d="M4.78571 3H20.2143C20.9244 3 21.5 3.58547 21.5 4.30769V4.96154C21.5 5.68376 20.9244 6.26923 20.2143 6.26923H4.78571C4.07563 6.26923 3.5 5.68376 3.5 4.96154V4.30769C3.5 3.58547 4.07563 3 4.78571 3ZM5.07475 7.60448C5.11609 7.58598 5.16081 7.57654 5.20598 7.57679H19.792C19.8372 7.57654 19.8819 7.58598 19.9232 7.60448C19.9646 7.62299 20.0016 7.65016 20.0319 7.6842C20.0623 7.71825 20.0852 7.75842 20.0992 7.80208C20.1133 7.84575 20.1181 7.89193 20.1134 7.93763L19.0579 18.259V18.2676C19.0027 18.7448 18.7772 19.1848 18.4241 19.5041C18.0711 19.8235 17.6151 19.9999 17.1426 19.9999H7.85776C7.38517 20.0001 6.92897 19.8237 6.57575 19.5044C6.22252 19.1851 5.99688 18.745 5.94165 18.2676C5.94143 18.2646 5.94143 18.2616 5.94165 18.2586L4.88455 7.93763C4.87986 7.89193 4.8847 7.84575 4.89874 7.80208C4.91278 7.75842 4.93571 7.71825 4.96604 7.6842C4.99637 7.65016 5.03341 7.62299 5.07475 7.60448ZM15.3481 15.173C15.3146 15.0933 15.2659 15.0211 15.2048 14.9608L13.4092 13.1345L15.2048 11.3082C15.3224 11.185 15.3877 11.0196 15.3864 10.8479C15.3851 10.6761 15.3175 10.5118 15.198 10.3903C15.0786 10.2689 14.917 10.2002 14.7481 10.1989C14.5792 10.1977 14.4167 10.2641 14.2956 10.3838L12.5004 12.2097L10.7048 10.3838C10.5837 10.2641 10.4211 10.1977 10.2523 10.1989C10.0834 10.2002 9.9218 10.2689 9.80237 10.3903C9.68293 10.5118 9.61527 10.6761 9.614 10.8479C9.61273 11.0196 9.67795 11.185 9.79557 11.3082L11.5912 13.1345L9.79557 14.9608C9.67795 15.084 9.61273 15.2494 9.614 15.4211C9.61527 15.5929 9.68293 15.7572 9.80237 15.8786C9.9218 16 10.0834 16.0688 10.2523 16.07C10.4211 16.0712 10.5837 16.0048 10.7048 15.8851L12.5004 14.0593L14.2956 15.8851C14.3549 15.9473 14.4258 15.9969 14.5042 16.0309C14.5826 16.065 14.6668 16.0829 14.752 16.0835C14.8372 16.0842 14.9217 16.0676 15.0005 16.0347C15.0794 16.0019 15.151 15.9534 15.2113 15.8921C15.2716 15.8309 15.3193 15.758 15.3516 15.6778C15.3839 15.5977 15.4003 15.5117 15.3997 15.4251C15.3991 15.3384 15.3815 15.2527 15.3481 15.173Z" fill="white"/>
<mask id="mask0_1953_23051" style="mask-type:luminance" maskUnits="userSpaceOnUse" x="3" y="3" width="19" height="17">
<path fill-rule="evenodd" clip-rule="evenodd" d="M4.78571 3H20.2143C20.9244 3 21.5 3.58547 21.5 4.30769V4.96154C21.5 5.68376 20.9244 6.26923 20.2143 6.26923H4.78571C4.07563 6.26923 3.5 5.68376 3.5 4.96154V4.30769C3.5 3.58547 4.07563 3 4.78571 3ZM5.07475 7.60448C5.11609 7.58598 5.16081 7.57654 5.20598 7.57679H19.792C19.8372 7.57654 19.8819 7.58598 19.9232 7.60448C19.9646 7.62299 20.0016 7.65016 20.0319 7.6842C20.0623 7.71825 20.0852 7.75842 20.0992 7.80208C20.1133 7.84575 20.1181 7.89193 20.1134 7.93763L19.0579 18.259V18.2676C19.0027 18.7448 18.7772 19.1848 18.4241 19.5041C18.0711 19.8235 17.6151 19.9999 17.1426 19.9999H7.85776C7.38517 20.0001 6.92897 19.8237 6.57575 19.5044C6.22252 19.1851 5.99688 18.745 5.94165 18.2676C5.94143 18.2646 5.94143 18.2616 5.94165 18.2586L4.88455 7.93763C4.87986 7.89193 4.8847 7.84575 4.89874 7.80208C4.91278 7.75842 4.93571 7.71825 4.96604 7.6842C4.99637 7.65016 5.03341 7.62299 5.07475 7.60448ZM15.3481 15.173C15.3146 15.0933 15.2659 15.0211 15.2048 14.9608L13.4092 13.1345L15.2048 11.3082C15.3224 11.185 15.3877 11.0196 15.3864 10.8479C15.3851 10.6761 15.3175 10.5118 15.198 10.3903C15.0786 10.2689 14.917 10.2002 14.7481 10.1989C14.5792 10.1977 14.4167 10.2641 14.2956 10.3838L12.5004 12.2097L10.7048 10.3838C10.5837 10.2641 10.4211 10.1977 10.2523 10.1989C10.0834 10.2002 9.9218 10.2689 9.80237 10.3903C9.68293 10.5118 9.61527 10.6761 9.614 10.8479C9.61273 11.0196 9.67795 11.185 9.79557 11.3082L11.5912 13.1345L9.79557 14.9608C9.67795 15.084 9.61273 15.2494 9.614 15.4211C9.61527 15.5929 9.68293 15.7572 9.80237 15.8786C9.9218 16 10.0834 16.0688 10.2523 16.07C10.4211 16.0712 10.5837 16.0048 10.7048 15.8851L12.5004 14.0593L14.2956 15.8851C14.3549 15.9473 14.4258 15.9969 14.5042 16.0309C14.5826 16.065 14.6668 16.0829 14.752 16.0835C14.8372 16.0842 14.9217 16.0676 15.0005 16.0347C15.0794 16.0019 15.151 15.9534 15.2113 15.8921C15.2716 15.8309 15.3193 15.758 15.3516 15.6778C15.3839 15.5977 15.4003 15.5117 15.3997 15.4251C15.3991 15.3384 15.3815 15.2527 15.3481 15.173Z" fill="white"/>
</mask>
<g mask="url(#mask0_1953_23051)">
<rect x="0.5" width="24" height="24" fill="white"/>
</g>
</svg>
