<svg width="70" height="70" viewBox="0 0 70 70" fill="none" xmlns="http://www.w3.org/2000/svg">
<path fill-rule="evenodd" clip-rule="evenodd" d="M26.25 32.0833C32.6842 32.0833 37.9167 26.8508 37.9167 20.4167C37.9167 13.9825 32.6842 8.75 26.25 8.75C19.8159 8.75 14.5834 13.9825 14.5834 20.4167C14.5834 26.8508 19.8159 32.0833 26.25 32.0833ZM49.5834 37.9167C54.4075 37.9167 58.3334 33.9908 58.3334 29.1667C58.3334 24.3425 54.4075 20.4167 49.5834 20.4167C44.7592 20.4167 40.8334 24.3425 40.8334 29.1667C40.8334 33.9908 44.7592 37.9167 49.5834 37.9167ZM64.1667 55.4167C64.1667 57.0267 62.863 58.3333 61.25 58.3333H46.6667C46.6667 59.9433 45.363 61.25 43.75 61.25H8.75004C7.13712 61.25 5.83337 59.9433 5.83337 58.3333C5.83337 47.075 14.9946 37.9167 26.25 37.9167C31.8705 37.9167 36.963 40.2004 40.6584 43.8842C43.193 41.9242 46.3138 40.8333 49.5834 40.8333C57.6246 40.8333 64.1667 47.3754 64.1667 55.4167Z" fill="#452393"/>
<mask id="mask0_1321_21455" style="mask-type:luminance" maskUnits="userSpaceOnUse" x="5" y="8" width="60" height="54">
<path fill-rule="evenodd" clip-rule="evenodd" d="M26.25 32.0833C32.6842 32.0833 37.9167 26.8508 37.9167 20.4167C37.9167 13.9825 32.6842 8.75 26.25 8.75C19.8159 8.75 14.5834 13.9825 14.5834 20.4167C14.5834 26.8508 19.8159 32.0833 26.25 32.0833ZM49.5834 37.9167C54.4075 37.9167 58.3334 33.9908 58.3334 29.1667C58.3334 24.3425 54.4075 20.4167 49.5834 20.4167C44.7592 20.4167 40.8334 24.3425 40.8334 29.1667C40.8334 33.9908 44.7592 37.9167 49.5834 37.9167ZM64.1667 55.4167C64.1667 57.0267 62.863 58.3333 61.25 58.3333H46.6667C46.6667 59.9433 45.363 61.25 43.75 61.25H8.75004C7.13712 61.25 5.83337 59.9433 5.83337 58.3333C5.83337 47.075 14.9946 37.9167 26.25 37.9167C31.8705 37.9167 36.963 40.2004 40.6584 43.8842C43.193 41.9242 46.3138 40.8333 49.5834 40.8333C57.6246 40.8333 64.1667 47.3754 64.1667 55.4167Z" fill="white"/>
</mask>
<g mask="url(#mask0_1321_21455)">
<rect width="70" height="70" fill="#452393"/>
</g>
</svg>
