<svg width="70" height="70" viewBox="0 0 70 70" fill="none" xmlns="http://www.w3.org/2000/svg">
<path fill-rule="evenodd" clip-rule="evenodd" d="M39.375 61.25V52.5C39.375 50.8892 38.0692 49.5834 36.4584 49.5834H33.5417C31.9309 49.5834 30.625 50.8892 30.625 52.5V61.25H14.5834V11.6667C14.5834 8.44505 17.195 5.83337 20.4167 5.83337H49.5834C52.805 5.83337 55.4167 8.44505 55.4167 11.6667V61.25H39.375ZM26.25 11.6667C24.6392 11.6667 23.3334 12.9725 23.3334 14.5834V17.5C23.3334 19.1109 24.6392 20.4167 26.25 20.4167H29.1667C30.7775 20.4167 32.0834 19.1109 32.0834 17.5V14.5834C32.0834 12.9725 30.7775 11.6667 29.1667 11.6667H26.25ZM40.8334 11.6667C39.2225 11.6667 37.9167 12.9725 37.9167 14.5834V17.5C37.9167 19.1109 39.2225 20.4167 40.8334 20.4167H43.75C45.3609 20.4167 46.6667 19.1109 46.6667 17.5V14.5834C46.6667 12.9725 45.3609 11.6667 43.75 11.6667H40.8334ZM26.25 23.3334C24.6392 23.3334 23.3334 24.6392 23.3334 26.25V29.1667C23.3334 30.7775 24.6392 32.0834 26.25 32.0834H29.1667C30.7775 32.0834 32.0834 30.7775 32.0834 29.1667V26.25C32.0834 24.6392 30.7775 23.3334 29.1667 23.3334H26.25ZM26.25 35C24.6392 35 23.3334 36.3059 23.3334 37.9167V40.8334C23.3334 42.4442 24.6392 43.75 26.25 43.75H29.1667C30.7775 43.75 32.0834 42.4442 32.0834 40.8334V37.9167C32.0834 36.3059 30.7775 35 29.1667 35H26.25ZM40.8334 35C39.2225 35 37.9167 36.3059 37.9167 37.9167V40.8334C37.9167 42.4442 39.2225 43.75 40.8334 43.75H43.75C45.3609 43.75 46.6667 42.4442 46.6667 40.8334V37.9167C46.6667 36.3059 45.3609 35 43.75 35H40.8334Z" fill="#FFC93C"/>
<path d="M43.75 23.3334H40.8333C39.2225 23.3334 37.9166 24.6392 37.9166 26.25V29.1667C37.9166 30.7775 39.2225 32.0834 40.8333 32.0834H43.75C45.3608 32.0834 46.6666 30.7775 46.6666 29.1667V26.25C46.6666 24.6392 45.3608 23.3334 43.75 23.3334Z" fill="#FFC93C"/>
<path opacity="0.3" fill-rule="evenodd" clip-rule="evenodd" d="M11.6667 61.25H58.3333C59.9442 61.25 61.25 62.5558 61.25 64.1667V65.3333C61.25 66.2998 60.4665 67.0833 59.5 67.0833H10.5C9.5335 67.0833 8.75 66.2998 8.75 65.3333V64.1667C8.75 62.5558 10.0558 61.25 11.6667 61.25Z" fill="#FFC93C"/>
</svg>
