<svg width="60" height="60" viewBox="0 0 60 60" fill="none" xmlns="http://www.w3.org/2000/svg">
<path fill-rule="evenodd" clip-rule="evenodd" d="M37.5 32.5H32.5V37.5C32.5 38.875 31.375 40 30 40C28.625 40 27.5 38.875 27.5 37.5V32.5H22.5C21.125 32.5 20 31.375 20 30C20 28.625 21.125 27.5 22.5 27.5H27.5V22.5C27.5 21.125 28.625 20 30 20C31.375 20 32.5 21.125 32.5 22.5V27.5H37.5C38.875 27.5 40 28.625 40 30C40 31.375 38.875 32.5 37.5 32.5ZM30 5C16.215 5 5 16.215 5 30C5 43.785 16.215 55 30 55C43.785 55 55 43.785 55 30C55 16.215 43.785 5 30 5Z" fill="#2E3A59"/>
<mask id="mask0_344_24977" style="mask-type:luminance" maskUnits="userSpaceOnUse" x="5" y="5" width="50" height="50">
<path fill-rule="evenodd" clip-rule="evenodd" d="M37.5 32.5H32.5V37.5C32.5 38.875 31.375 40 30 40C28.625 40 27.5 38.875 27.5 37.5V32.5H22.5C21.125 32.5 20 31.375 20 30C20 28.625 21.125 27.5 22.5 27.5H27.5V22.5C27.5 21.125 28.625 20 30 20C31.375 20 32.5 21.125 32.5 22.5V27.5H37.5C38.875 27.5 40 28.625 40 30C40 31.375 38.875 32.5 37.5 32.5ZM30 5C16.215 5 5 16.215 5 30C5 43.785 16.215 55 30 55C43.785 55 55 43.785 55 30C55 16.215 43.785 5 30 5Z" fill="white"/>
</mask>
<g mask="url(#mask0_344_24977)">
<rect width="60" height="60" fill="#8F9BB3"/>
</g>
</svg>
