<svg width="24" height="24" viewBox="0 0 24 24" fill="none" xmlns="http://www.w3.org/2000/svg">
<g opacity="0.3">
<path d="M6.99941 6.10757C8.64072 5.97447 9.51382 6.52712 9.85627 6.82804C10.6709 7.21336 11.5694 7.41733 12.4817 7.42409C13.4218 7.42242 14.3457 7.19532 15.1658 6.76438C15.5484 6.46057 16.4122 5.98315 17.9486 6.10757C18.0959 6.11912 18.2421 6.07551 18.3552 5.98627C18.4682 5.89703 18.5391 5.76943 18.5521 5.63137C18.5652 5.4933 18.5194 5.35601 18.4248 5.24951C18.3302 5.143 18.1945 5.07596 18.0474 5.06303C16.8983 4.92276 15.7332 5.16547 14.7555 5.74878L15.3633 3.95774C15.4004 3.84736 15.4092 3.73034 15.3891 3.61617C15.3689 3.502 15.3204 3.39388 15.2474 3.30059C15.1743 3.20731 15.0789 3.13148 14.9688 3.07925C14.8587 3.02702 14.737 2.99988 14.6136 3H10.3376C10.2124 2.9996 10.089 3.0273 9.97761 3.0808C9.86622 3.13429 9.77011 3.21202 9.69732 3.30749C9.62453 3.40295 9.57716 3.51338 9.55919 3.62952C9.54122 3.74567 9.55317 3.86417 9.59403 3.9751L10.2543 5.78929C9.62797 5.37553 8.55125 4.92704 6.90377 5.06303C6.75608 5.07493 6.61948 5.14136 6.52401 5.24771C6.42854 5.35407 6.38204 5.49164 6.39472 5.63015C6.4074 5.76866 6.47824 5.89678 6.59164 5.98631C6.70504 6.07585 6.85172 6.11946 6.99941 6.10757Z" fill="#F4BE2A"/>
<path d="M20.7872 17.016L19.7815 15.0456C19.5378 14.5663 19.4173 14.0401 19.4298 13.5092C19.4668 11.912 19.186 8.22864 15.9837 7.22461C14.9514 7.85185 13.749 8.18825 12.519 8.19391C11.2704 8.18344 10.0475 7.85975 8.97726 7.25644C5.86434 8.30097 5.59284 11.9294 5.62986 13.5092C5.64124 14.0403 5.51972 14.5665 5.27507 15.0456L4.27239 17.016C4.11338 17.3275 4.04114 17.6717 4.06242 18.0164C4.0837 18.3612 4.19782 18.6952 4.3941 18.9874C4.59038 19.2796 4.86243 19.5203 5.18482 19.6871C5.50721 19.8539 5.86943 19.9414 6.23764 19.9413H18.8189C19.1872 19.9415 19.5496 19.8542 19.8722 19.6874C20.1947 19.5207 20.467 19.2801 20.6636 18.988C20.8601 18.6958 20.9746 18.3618 20.9962 18.0169C21.0178 17.6721 20.9459 17.3278 20.7872 17.016ZM13.0596 16.7059H12.9379V17.6637C12.9379 17.7788 12.8891 17.8892 12.8023 17.9705C12.7155 18.0519 12.5978 18.0977 12.4751 18.0977C12.3524 18.0977 12.2346 18.0519 12.1479 17.9705C12.0611 17.8892 12.0123 17.7788 12.0123 17.6637V16.7059H10.6597C10.537 16.7059 10.4192 16.6602 10.3325 16.5788C10.2457 16.4974 10.1969 16.387 10.1969 16.2719C10.1969 16.1568 10.2457 16.0464 10.3325 15.965C10.4192 15.8836 10.537 15.8379 10.6597 15.8379H13.0596C13.2633 15.8379 13.4587 15.762 13.6028 15.6269C13.7469 15.4918 13.8278 15.3085 13.8278 15.1174C13.8278 14.9263 13.7469 14.7431 13.6028 14.608C13.4587 14.4729 13.2633 14.3969 13.0596 14.3969H11.9829C11.5092 14.3969 11.0549 14.2205 10.7199 13.9063C10.385 13.5922 10.1968 13.1661 10.1968 12.7218C10.1968 12.2776 10.385 11.8515 10.7199 11.5374C11.0549 11.2232 11.5092 11.0467 11.9829 11.0467H12.0121V9.9867C12.0121 9.87159 12.0609 9.76119 12.1476 9.6798C12.2344 9.59841 12.3521 9.55268 12.4749 9.55268C12.5976 9.55268 12.7153 9.59841 12.8021 9.6798C12.8889 9.76119 12.9376 9.87159 12.9376 9.9867V11.0469H14.0756C14.1364 11.0469 14.1966 11.0581 14.2527 11.0799C14.3088 11.1017 14.3599 11.1337 14.4028 11.174C14.4458 11.2143 14.4799 11.2622 14.5032 11.3148C14.5264 11.3675 14.5384 11.4239 14.5384 11.4809C14.5384 11.5379 14.5264 11.5943 14.5032 11.647C14.4799 11.6996 14.4458 11.7475 14.4028 11.7878C14.3599 11.8281 14.3088 11.8601 14.2527 11.8819C14.1966 11.9037 14.1364 11.9149 14.0756 11.9149H11.9829C11.7547 11.9149 11.5358 11.9999 11.3744 12.1513C11.213 12.3027 11.1223 12.5079 11.1223 12.722C11.1223 12.936 11.213 13.1413 11.3744 13.2927C11.5358 13.444 11.7547 13.5291 11.9829 13.5291H13.0596C13.5088 13.5291 13.9396 13.6964 14.2573 13.9943C14.5749 14.2922 14.7534 14.6963 14.7534 15.1176C14.7534 15.5389 14.5749 15.9429 14.2573 16.2408C13.9396 16.5387 13.5088 16.7059 13.0596 16.7059Z" fill="#F4BE2A"/>
</g>
<path d="M5.94063 7.16616C7.58194 7.03306 8.45504 7.58571 8.79749 7.88663C9.61216 8.27195 10.5106 8.47592 11.423 8.48268C12.363 8.48102 13.287 8.25392 14.107 7.82298C14.4896 7.51916 15.3534 7.04174 16.8899 7.16616C17.0371 7.17771 17.1833 7.1341 17.2964 7.04486C17.4095 6.95563 17.4803 6.82803 17.4933 6.68996C17.5064 6.55189 17.4606 6.4146 17.366 6.3081C17.2714 6.2016 17.1357 6.13455 16.9886 6.12163C15.8395 5.98135 14.6744 6.22406 13.6967 6.80737L14.3045 5.01633C14.3416 4.90596 14.3504 4.78894 14.3303 4.67476C14.3102 4.56059 14.2616 4.45247 14.1886 4.35919C14.1156 4.2659 14.0201 4.19007 13.91 4.13784C13.7999 4.08562 13.6782 4.05847 13.5548 4.0586H9.27878C9.15364 4.05819 9.03021 4.0859 8.91883 4.13939C8.80744 4.19289 8.71134 4.27062 8.63854 4.36608C8.56575 4.46155 8.51839 4.57197 8.50042 4.68812C8.48245 4.80426 8.49439 4.92276 8.53525 5.03369L9.19548 6.84788C8.56919 6.43412 7.49247 5.98564 5.84499 6.12163C5.6973 6.13352 5.5607 6.19995 5.46523 6.30631C5.36977 6.41266 5.32326 6.55023 5.33594 6.68874C5.34863 6.82726 5.41946 6.95537 5.53286 7.04491C5.64626 7.13444 5.79294 7.17806 5.94063 7.16616Z" fill="#F4BE2A"/>
<path d="M19.7285 18.0746L18.7227 16.1042C18.479 15.6249 18.3585 15.0987 18.371 14.5678C18.408 12.9706 18.1273 9.28723 14.9249 8.2832C13.8926 8.91044 12.6902 9.24685 11.4602 9.25251C10.2116 9.24203 8.98871 8.91834 7.91848 8.31503C4.80556 9.35957 4.53406 12.988 4.57109 14.5678C4.58246 15.0989 4.46095 15.6251 4.21629 16.1042L3.21362 18.0746C3.0546 18.3861 2.98236 18.7303 3.00364 19.075C3.02493 19.4198 3.13904 19.7538 3.33532 20.046C3.53161 20.3382 3.80365 20.5789 4.12604 20.7457C4.44844 20.9125 4.81066 21 5.17886 20.9999H17.7601C18.1284 21.0001 18.4908 20.9128 18.8134 20.746C19.136 20.5793 19.4082 20.3387 19.6048 20.0466C19.8014 19.7544 19.9158 19.4204 19.9374 19.0755C19.959 18.7307 19.8872 18.3864 19.7285 18.0746ZM12.0008 17.7645H11.8791V18.7222C11.8791 18.8374 11.8303 18.9477 11.7435 19.0291C11.6568 19.1105 11.539 19.1563 11.4163 19.1563C11.2936 19.1563 11.1759 19.1105 11.0891 19.0291C11.0023 18.9477 10.9535 18.8374 10.9535 18.7222V17.7645H9.60091C9.47818 17.7645 9.36047 17.7188 9.27368 17.6374C9.18689 17.556 9.13814 17.4456 9.13814 17.3305C9.13814 17.2154 9.18689 17.105 9.27368 17.0236C9.36047 16.9422 9.47818 16.8965 9.60091 16.8965H12.0008C12.2046 16.8965 12.4 16.8206 12.544 16.6855C12.6881 16.5503 12.769 16.3671 12.769 16.176C12.769 15.9849 12.6881 15.8017 12.544 15.6666C12.4 15.5314 12.2046 15.4555 12.0008 15.4555H10.9241C10.4504 15.4555 9.9961 15.2791 9.66115 14.9649C9.32619 14.6508 9.13801 14.2247 9.13801 13.7804C9.13801 13.3362 9.32619 12.9101 9.66115 12.596C9.9961 12.2818 10.4504 12.1053 10.9241 12.1053H10.9533V11.0453C10.9533 10.9302 11.0021 10.8198 11.0889 10.7384C11.1757 10.657 11.2934 10.6113 11.4161 10.6113C11.5388 10.6113 11.6565 10.657 11.7433 10.7384C11.8301 10.8198 11.8789 10.9302 11.8789 11.0453V12.1055H13.0168C13.0776 12.1055 13.1378 12.1167 13.1939 12.1385C13.2501 12.1603 13.3011 12.1923 13.3441 12.2326C13.387 12.2729 13.4211 12.3207 13.4444 12.3734C13.4676 12.4261 13.4796 12.4825 13.4796 12.5395C13.4796 12.5965 13.4676 12.6529 13.4444 12.7056C13.4211 12.7582 13.387 12.8061 13.3441 12.8464C13.3011 12.8867 13.2501 12.9187 13.1939 12.9405C13.1378 12.9623 13.0776 12.9735 13.0168 12.9735H10.9241C10.6959 12.9735 10.477 13.0585 10.3156 13.2099C10.1542 13.3613 10.0636 13.5665 10.0636 13.7806C10.0636 13.9946 10.1542 14.1999 10.3156 14.3513C10.477 14.5026 10.6959 14.5877 10.9241 14.5877H12.0008C12.45 14.5877 12.8808 14.755 13.1985 15.0529C13.5161 15.3508 13.6946 15.7549 13.6946 16.1762C13.6946 16.5975 13.5161 17.0015 13.1985 17.2994C12.8808 17.5973 12.45 17.7645 12.0008 17.7645Z" fill="#F4BE2A"/>
</svg>
