<svg width="24" height="24" viewBox="0 0 24 24" fill="none" xmlns="http://www.w3.org/2000/svg">
<path opacity="0.3" d="M19.1849 6.62545H13.8001L12.4085 4.32861C12.348 4.13174 12.106 4.00049 11.9245 4.00049H5.87417C4.84561 4.00049 4.05907 4.8536 4.05907 5.96921V17.7815C4.05907 18.8972 4.84561 19.7503 5.87417 19.7503H19.1849C20.2135 19.7503 21 18.8972 21 17.7815V8.59417C21 7.47856 20.2135 6.62545 19.1849 6.62545ZM9.50437 13.8441H7.08423C6.72121 13.8441 6.4792 13.5816 6.4792 13.1879C6.4792 12.7941 6.72121 12.5316 7.08423 12.5316H9.50437C9.86739 12.5316 10.1094 12.7941 10.1094 13.1879C10.1094 13.5816 9.86739 13.8441 9.50437 13.8441ZM11.3195 11.2191H7.08423C6.72121 11.2191 6.4792 10.9566 6.4792 10.5629C6.4792 10.1692 6.72121 9.90665 7.08423 9.90665H11.3195C11.6825 9.90665 11.9245 10.1692 11.9245 10.5629C11.9245 10.9566 11.6825 11.2191 11.3195 11.2191ZM19.7899 16.8628L14.5866 7.93793H19.1849C19.5479 7.93793 19.7899 8.20043 19.7899 8.59417V16.8628Z" fill="white"/>
<path d="M18.1258 7.75045H12.741L11.3495 5.45361C11.289 5.25674 11.0469 5.12549 10.8654 5.12549H4.8151C3.78654 5.12549 3 5.9786 3 7.09421V18.9065C3 20.0222 3.78654 20.8753 4.8151 20.8753H18.1258C19.1544 20.8753 19.9409 20.0222 19.9409 18.9065V9.71917C19.9409 8.60356 19.1544 7.75045 18.1258 7.75045ZM8.4453 14.9691H6.02517C5.66215 14.9691 5.42013 14.7066 5.42013 14.3129C5.42013 13.9191 5.66215 13.6566 6.02517 13.6566H8.4453C8.80832 13.6566 9.05033 13.9191 9.05033 14.3129C9.05033 14.7066 8.80832 14.9691 8.4453 14.9691ZM10.2604 12.3441H6.02517C5.66215 12.3441 5.42013 12.0816 5.42013 11.6879C5.42013 11.2942 5.66215 11.0317 6.02517 11.0317H10.2604C10.6234 11.0317 10.8654 11.2942 10.8654 11.6879C10.8654 12.0816 10.6234 12.3441 10.2604 12.3441ZM18.7309 17.9878L13.5276 9.06293H18.1258C18.4889 9.06293 18.7309 9.32543 18.7309 9.71917V17.9878Z" fill="white"/>
</svg>
