<svg width="24" height="24" viewBox="0 0 24 24" fill="none" xmlns="http://www.w3.org/2000/svg">
<path d="M6.38812 12.5769H8.04568C8.14811 12.5765 8.24806 12.5436 8.33257 12.4824C8.41708 12.4212 8.48227 12.3345 8.51967 12.2337L9.3151 10.0611L10.6032 13.5792C10.6403 13.6803 10.7054 13.7672 10.79 13.8284C10.8746 13.8897 10.9747 13.9224 11.0772 13.9224C11.1797 13.9224 11.2799 13.8897 11.3645 13.8284C11.449 13.7672 11.5141 13.6803 11.5512 13.5792L11.9182 12.5769H16.5528C16.6876 12.5769 16.8169 12.5203 16.9122 12.4195C17.0075 12.3187 17.0611 12.1821 17.0611 12.0395C17.0611 11.897 17.0075 11.7603 16.9122 11.6596C16.8169 11.5588 16.6876 11.5022 16.5528 11.5022H11.5699C11.4675 11.5026 11.3675 11.5355 11.283 11.5967C11.1985 11.6579 11.1333 11.7445 11.0959 11.8454L11.0772 11.8968L9.78909 8.37873C9.75203 8.27766 9.68693 8.1908 9.60235 8.12955C9.51776 8.0683 9.41763 8.03552 9.3151 8.03552C9.21258 8.03552 9.11245 8.0683 9.02786 8.12955C8.94327 8.1908 8.87818 8.27766 8.84112 8.37873L7.69742 11.5022H6.38812C6.25333 11.5022 6.12405 11.5588 6.02874 11.6596C5.93343 11.7603 5.87988 11.897 5.87988 12.0396C5.87988 12.1821 5.93343 12.3188 6.02874 12.4195C6.12405 12.5203 6.25333 12.5769 6.38812 12.5769Z" fill="#F4BE2A"/>
<path d="M14.8701 8.53556L15.7531 9.46924L16.6361 8.53556L16.709 8.45859C16.7669 8.39729 16.8129 8.32451 16.8443 8.2444C16.8757 8.1643 16.8918 8.07845 16.8918 7.99175C16.8918 7.90505 16.8757 7.8192 16.8443 7.7391C16.8129 7.659 16.7669 7.58622 16.709 7.52491C16.651 7.46361 16.5821 7.41498 16.5064 7.3818C16.4306 7.34862 16.3494 7.33154 16.2674 7.33154C16.1854 7.33154 16.1042 7.34862 16.0285 7.3818C15.9527 7.41498 15.8839 7.46361 15.8259 7.52491L15.7531 7.60197L15.6802 7.52491C15.6222 7.46361 15.5534 7.41498 15.4776 7.3818C15.4019 7.34862 15.3207 7.33154 15.2387 7.33154C15.1567 7.33154 15.0755 7.34862 14.9997 7.3818C14.924 7.41498 14.8551 7.46361 14.7971 7.52491C14.7392 7.58622 14.6932 7.659 14.6618 7.7391C14.6304 7.8192 14.6143 7.90505 14.6143 7.99175C14.6143 8.07845 14.6304 8.1643 14.6618 8.2444C14.6932 8.32451 14.7392 8.39729 14.7971 8.45859L14.8701 8.53556Z" fill="#F4BE2A"/>
<path d="M18.9235 4.1073H4.01771C3.88406 4.1073 3.75172 4.13513 3.62825 4.1892C3.50477 4.24328 3.39258 4.32254 3.29807 4.42246C3.20357 4.52238 3.12861 4.64101 3.07746 4.77156C3.02632 4.90211 3 5.04204 3 5.18335V18.9243C2.99999 19.0656 3.02631 19.2056 3.07745 19.3361C3.12859 19.4667 3.20356 19.5853 3.29806 19.6852C3.39256 19.7852 3.50476 19.8644 3.62824 19.9185C3.75171 19.9726 3.88406 20.0005 4.01771 20.0005H18.9235C19.1934 20.0004 19.4523 19.887 19.6431 19.6852C19.834 19.4834 19.9412 19.2097 19.9412 18.9243V5.18333C19.9412 4.89795 19.8339 4.62426 19.6431 4.42246C19.4522 4.22067 19.1934 4.1073 18.9235 4.1073ZM6.38824 18.7466C6.1872 18.7466 5.99067 18.6835 5.82351 18.5655C5.65636 18.4474 5.52607 18.2795 5.44914 18.0831C5.3722 17.8867 5.35208 17.6706 5.3913 17.4622C5.43052 17.2537 5.52733 17.0622 5.66948 16.9119C5.81164 16.7616 5.99276 16.6592 6.18993 16.6178C6.38711 16.5763 6.59149 16.5976 6.77722 16.6789C6.96296 16.7603 7.12171 16.898 7.2334 17.0747C7.34509 17.2515 7.40471 17.4593 7.40471 17.6718C7.40471 17.9569 7.29761 18.2302 7.10699 18.4318C6.91636 18.6333 6.65782 18.7466 6.38824 18.7466ZM9.43765 18.7466C9.23661 18.7466 9.04008 18.6835 8.87293 18.5655C8.70577 18.4474 8.57549 18.2795 8.49855 18.0831C8.42162 17.8867 8.40149 17.6706 8.44071 17.4622C8.47993 17.2537 8.57674 17.0622 8.71889 16.9119C8.86105 16.7616 9.04217 16.6592 9.23934 16.6178C9.43652 16.5763 9.6409 16.5976 9.82663 16.6789C10.0124 16.7603 10.1711 16.898 10.2828 17.0747C10.3945 17.2515 10.4541 17.4593 10.4541 17.6718C10.4541 17.9569 10.347 18.2302 10.1564 18.4318C9.96578 18.6333 9.70723 18.7466 9.43765 18.7466ZM18.2471 15.3432H4.69412V5.89854H18.2471V15.3432Z" fill="#F4BE2A"/>
<g opacity="0.3">
<path d="M7.44694 11.47H9.1045C9.20693 11.4696 9.30688 11.4366 9.39139 11.3754C9.47591 11.3142 9.54109 11.2276 9.57849 11.1268L10.3739 8.9542L11.6621 12.4723C11.6991 12.5734 11.7642 12.6602 11.8488 12.7215C11.9334 12.7827 12.0335 12.8155 12.136 12.8155C12.2386 12.8155 12.3387 12.7827 12.4233 12.7215C12.5079 12.6602 12.573 12.5734 12.61 12.4723L12.977 11.47H17.6117C17.7465 11.47 17.8757 11.4134 17.971 11.3126C18.0664 11.2118 18.1199 11.0751 18.1199 10.9326C18.1199 10.7901 18.0664 10.6534 17.971 10.5526C17.8757 10.4518 17.7465 10.3952 17.6117 10.3952H12.6287C12.5263 10.3957 12.4263 10.4286 12.3418 10.4898C12.2573 10.551 12.1921 10.6376 12.1547 10.7384L12.136 10.7899L10.8479 7.27179C10.8109 7.17072 10.7458 7.08386 10.6612 7.02261C10.5766 6.96136 10.4765 6.92859 10.3739 6.92859C10.2714 6.92859 10.1713 6.96136 10.0867 7.02261C10.0021 7.08386 9.937 7.17072 9.89994 7.27179L8.75624 10.3952H7.44694C7.31215 10.3952 7.18288 10.4519 7.08756 10.5526C6.99225 10.6534 6.93871 10.7901 6.93871 10.9326C6.93871 11.0751 6.99225 11.2118 7.08756 11.3126C7.18288 11.4134 7.31215 11.47 7.44694 11.47Z" fill="#F4BE2A"/>
<path d="M15.9289 7.42875L16.8119 8.36242L17.6949 7.42875L17.7678 7.35178C17.8258 7.29047 17.8718 7.21769 17.9031 7.13759C17.9345 7.05749 17.9507 6.97164 17.9507 6.88494C17.9507 6.79824 17.9345 6.71239 17.9031 6.63229C17.8718 6.55219 17.8258 6.47941 17.7678 6.4181C17.7098 6.3568 17.641 6.30817 17.5652 6.27499C17.4894 6.24181 17.4082 6.22473 17.3263 6.22473C17.2443 6.22473 17.1631 6.24181 17.0873 6.27499C17.0115 6.30817 16.9427 6.3568 16.8847 6.4181L16.8119 6.49516L16.739 6.4181C16.681 6.3568 16.6122 6.30817 16.5365 6.27499C16.4607 6.24181 16.3795 6.22473 16.2975 6.22473C16.2155 6.22473 16.1343 6.24181 16.0585 6.27499C15.9828 6.30817 15.914 6.3568 15.856 6.4181C15.798 6.47941 15.752 6.55219 15.7206 6.63229C15.6892 6.71239 15.6731 6.79824 15.6731 6.88494C15.6731 6.97164 15.6892 7.05749 15.7206 7.13759C15.752 7.21769 15.798 7.29047 15.856 7.35178L15.9289 7.42875Z" fill="#F4BE2A"/>
<path d="M19.9823 3.00049H5.07653C4.94289 3.00048 4.81055 3.02832 4.68707 3.08239C4.56359 3.13647 4.4514 3.21573 4.3569 3.31565C4.26239 3.41557 4.18743 3.53419 4.13628 3.66475C4.08514 3.7953 4.05882 3.93523 4.05882 4.07654V17.8175C4.05882 17.9588 4.08513 18.0988 4.13627 18.2293C4.18742 18.3599 4.26238 18.4785 4.35688 18.5784C4.45139 18.6784 4.56358 18.7576 4.68706 18.8117C4.81054 18.8658 4.94288 18.8936 5.07653 18.8936H19.9823C20.2522 18.8936 20.5111 18.7802 20.7019 18.5784C20.8928 18.3766 21 18.1029 21 17.8175V4.07652C21 3.79114 20.8928 3.51744 20.7019 3.31565C20.5111 3.11386 20.2522 3.00049 19.9823 3.00049ZM7.44706 17.6398C7.24602 17.6398 7.04949 17.5767 6.88234 17.4586C6.71518 17.3405 6.5849 17.1727 6.50796 16.9763C6.43103 16.7799 6.4109 16.5638 6.45012 16.3554C6.48934 16.1469 6.58615 15.9554 6.7283 15.8051C6.87046 15.6548 7.05158 15.5524 7.24875 15.5109C7.44593 15.4695 7.65031 15.4908 7.83604 15.5721C8.02178 15.6534 8.18053 15.7912 8.29222 15.9679C8.40391 16.1447 8.46353 16.3525 8.46353 16.565C8.46353 16.8501 8.35644 17.1234 8.16581 17.325C7.97519 17.5265 7.71664 17.6398 7.44706 17.6398ZM10.4965 17.6398C10.2954 17.6398 10.0989 17.5767 9.93175 17.4586C9.76459 17.3405 9.63431 17.1727 9.55737 16.9763C9.48044 16.7799 9.46031 16.5638 9.49953 16.3554C9.53875 16.1469 9.63556 15.9554 9.77772 15.8051C9.91987 15.6548 10.101 15.5524 10.2982 15.5109C10.4953 15.4695 10.6997 15.4908 10.8855 15.5721C11.0712 15.6534 11.2299 15.7912 11.3416 15.9679C11.4533 16.1447 11.5129 16.3525 11.5129 16.565C11.5129 16.8501 11.4058 17.1234 11.2152 17.325C11.0246 17.5265 10.7661 17.6398 10.4965 17.6398ZM19.3059 14.2364H5.75294V4.79173H19.3059V14.2364Z" fill="#F4BE2A"/>
</g>
</svg>
