<svg width="24" height="24" viewBox="0 0 24 24" fill="none" xmlns="http://www.w3.org/2000/svg">
<path d="M6.38812 12.5769H8.04568C8.14811 12.5765 8.24806 12.5435 8.33257 12.4823C8.41708 12.4211 8.48227 12.3345 8.51967 12.2337L9.3151 10.0611L10.6032 13.5792C10.6403 13.6802 10.7054 13.7671 10.79 13.8284C10.8746 13.8896 10.9747 13.9224 11.0772 13.9224C11.1797 13.9224 11.2799 13.8896 11.3645 13.8284C11.449 13.7671 11.5141 13.6802 11.5512 13.5792L11.9182 12.5769H16.5528C16.6876 12.5769 16.8169 12.5202 16.9122 12.4195C17.0075 12.3187 17.0611 12.182 17.0611 12.0395C17.0611 11.897 17.0075 11.7603 16.9122 11.6595C16.8169 11.5587 16.6876 11.5021 16.5528 11.5021H11.5699C11.4675 11.5025 11.3675 11.5355 11.283 11.5967C11.1985 11.6579 11.1333 11.7445 11.0959 11.8453L11.0772 11.8968L9.78909 8.37868C9.75203 8.27761 9.68693 8.19075 9.60235 8.1295C9.51776 8.06825 9.41763 8.03548 9.3151 8.03548C9.21258 8.03548 9.11245 8.06825 9.02786 8.1295C8.94327 8.19075 8.87818 8.27761 8.84112 8.37868L7.69742 11.5021H6.38812C6.25333 11.5021 6.12405 11.5588 6.02874 11.6595C5.93343 11.7603 5.87988 11.897 5.87988 12.0395C5.87988 12.182 5.93343 12.3187 6.02874 12.4195C6.12405 12.5203 6.25333 12.5769 6.38812 12.5769Z" fill="white"/>
<path d="M14.8701 8.53562L15.7531 9.4693L16.6361 8.53562L16.709 8.45865C16.7669 8.39735 16.8129 8.32457 16.8443 8.24447C16.8757 8.16437 16.8918 8.07851 16.8918 7.99181C16.8918 7.90511 16.8757 7.81926 16.8443 7.73916C16.8129 7.65906 16.7669 7.58628 16.709 7.52498C16.651 7.46367 16.5821 7.41504 16.5064 7.38186C16.4306 7.34868 16.3494 7.3316 16.2674 7.3316C16.1854 7.3316 16.1042 7.34868 16.0285 7.38186C15.9527 7.41504 15.8839 7.46367 15.8259 7.52498L15.7531 7.60203L15.6802 7.52498C15.6222 7.46367 15.5534 7.41504 15.4776 7.38186C15.4019 7.34868 15.3207 7.3316 15.2387 7.3316C15.1567 7.3316 15.0755 7.34868 14.9997 7.38186C14.924 7.41504 14.8551 7.46367 14.7971 7.52498C14.7392 7.58628 14.6932 7.65906 14.6618 7.73916C14.6304 7.81926 14.6143 7.90511 14.6143 7.99181C14.6143 8.07851 14.6304 8.16437 14.6618 8.24447C14.6932 8.32457 14.7392 8.39735 14.7971 8.45865L14.8701 8.53562Z" fill="white"/>
<path d="M18.9235 4.10732H4.01771C3.88406 4.10731 3.75172 4.13514 3.62825 4.18922C3.50477 4.24329 3.39258 4.32255 3.29807 4.42247C3.20357 4.5224 3.12861 4.64102 3.07746 4.77157C3.02632 4.90213 3 5.04205 3 5.18336V18.9243C2.99999 19.0656 3.02631 19.2056 3.07745 19.3361C3.12859 19.4667 3.20356 19.5853 3.29806 19.6853C3.39256 19.7852 3.50476 19.8645 3.62824 19.9185C3.75171 19.9726 3.88406 20.0005 4.01771 20.0005H18.9235C19.1934 20.0005 19.4523 19.8871 19.6431 19.6852C19.834 19.4834 19.9412 19.2097 19.9412 18.9243V5.18335C19.9412 4.89796 19.8339 4.62427 19.6431 4.42248C19.4522 4.22068 19.1934 4.10732 18.9235 4.10732ZM6.38824 18.7466C6.1872 18.7466 5.99067 18.6836 5.82351 18.5655C5.65636 18.4474 5.52607 18.2795 5.44914 18.0831C5.3722 17.8868 5.35208 17.6707 5.3913 17.4622C5.43052 17.2537 5.52733 17.0622 5.66948 16.9119C5.81164 16.7616 5.99276 16.6592 6.18993 16.6178C6.38711 16.5763 6.59149 16.5976 6.77722 16.6789C6.96296 16.7603 7.12171 16.898 7.2334 17.0748C7.34509 17.2515 7.40471 17.4593 7.40471 17.6719C7.40471 17.9569 7.29761 18.2303 7.10699 18.4318C6.91636 18.6334 6.65782 18.7466 6.38824 18.7466ZM9.43765 18.7466C9.23661 18.7466 9.04008 18.6836 8.87293 18.5655C8.70577 18.4474 8.57549 18.2795 8.49855 18.0831C8.42162 17.8868 8.40149 17.6707 8.44071 17.4622C8.47993 17.2537 8.57674 17.0622 8.71889 16.9119C8.86105 16.7616 9.04217 16.6592 9.23934 16.6178C9.43652 16.5763 9.6409 16.5976 9.82663 16.6789C10.0124 16.7603 10.1711 16.898 10.2828 17.0748C10.3945 17.2515 10.4541 17.4593 10.4541 17.6719C10.4541 17.9569 10.347 18.2303 10.1564 18.4318C9.96578 18.6334 9.70723 18.7466 9.43765 18.7466ZM18.2471 15.3433H4.69412V5.89855H18.2471V15.3433Z" fill="white"/>
<g opacity="0.3">
<path d="M7.44694 11.47H9.1045C9.20693 11.4695 9.30688 11.4366 9.39139 11.3754C9.47591 11.3142 9.54109 11.2276 9.57849 11.1268L10.3739 8.95419L11.6621 12.4723C11.6991 12.5733 11.7642 12.6602 11.8488 12.7215C11.9334 12.7827 12.0335 12.8155 12.136 12.8155C12.2386 12.8155 12.3387 12.7827 12.4233 12.7215C12.5079 12.6602 12.573 12.5733 12.61 12.4723L12.977 11.47H17.6117C17.7465 11.47 17.8757 11.4133 17.971 11.3126C18.0664 11.2118 18.1199 11.0751 18.1199 10.9326C18.1199 10.7901 18.0664 10.6534 17.971 10.5526C17.8757 10.4518 17.7465 10.3952 17.6117 10.3952H12.6287C12.5263 10.3956 12.4263 10.4286 12.3418 10.4898C12.2573 10.551 12.1921 10.6376 12.1547 10.7384L12.136 10.7898L10.8479 7.27178C10.8109 7.17071 10.7458 7.08385 10.6612 7.0226C10.5766 6.96135 10.4765 6.92857 10.3739 6.92857C10.2714 6.92857 10.1713 6.96135 10.0867 7.0226C10.0021 7.08385 9.937 7.17071 9.89994 7.27178L8.75624 10.3952H7.44694C7.31215 10.3952 7.18288 10.4518 7.08756 10.5526C6.99225 10.6534 6.93871 10.7901 6.93871 10.9326C6.93871 11.0751 6.99225 11.2118 7.08756 11.3126C7.18288 11.4134 7.31215 11.47 7.44694 11.47Z" fill="white"/>
<path d="M15.9289 7.42871L16.8119 8.36239L17.6949 7.42871L17.7678 7.35175C17.8258 7.29044 17.8718 7.21766 17.9031 7.13756C17.9345 7.05746 17.9507 6.97161 17.9507 6.88491C17.9507 6.79821 17.9345 6.71236 17.9031 6.63226C17.8718 6.55216 17.8258 6.47938 17.7678 6.41807C17.7098 6.35677 17.641 6.30813 17.5652 6.27496C17.4894 6.24178 17.4082 6.2247 17.3263 6.2247C17.2443 6.2247 17.1631 6.24178 17.0873 6.27496C17.0115 6.30813 16.9427 6.35677 16.8847 6.41807L16.8119 6.49513L16.739 6.41807C16.681 6.35677 16.6122 6.30813 16.5365 6.27496C16.4607 6.24178 16.3795 6.2247 16.2975 6.2247C16.2155 6.2247 16.1343 6.24178 16.0585 6.27496C15.9828 6.30813 15.914 6.35677 15.856 6.41807C15.798 6.47938 15.752 6.55216 15.7206 6.63226C15.6892 6.71236 15.6731 6.79821 15.6731 6.88491C15.6731 6.97161 15.6892 7.05746 15.7206 7.13756C15.752 7.21766 15.798 7.29044 15.856 7.35175L15.9289 7.42871Z" fill="white"/>
<path d="M19.9823 3.00046H5.07653C4.94289 3.00045 4.81055 3.02828 4.68707 3.08236C4.56359 3.13644 4.4514 3.2157 4.3569 3.31562C4.26239 3.41554 4.18743 3.53416 4.13628 3.66472C4.08514 3.79527 4.05882 3.9352 4.05882 4.07651V17.8175C4.05882 17.9588 4.08513 18.0987 4.13627 18.2293C4.18742 18.3598 4.26238 18.4785 4.35688 18.5784C4.45139 18.6783 4.56358 18.7576 4.68706 18.8117C4.81054 18.8658 4.94288 18.8936 5.07653 18.8936H19.9823C20.2522 18.8936 20.5111 18.7802 20.7019 18.5784C20.8928 18.3766 21 18.1029 21 17.8175V4.07649C21 3.79111 20.8928 3.51741 20.7019 3.31562C20.5111 3.11382 20.2522 3.00046 19.9823 3.00046ZM7.44706 17.6397C7.24602 17.6397 7.04949 17.5767 6.88234 17.4586C6.71518 17.3405 6.5849 17.1727 6.50796 16.9763C6.43103 16.7799 6.4109 16.5638 6.45012 16.3553C6.48934 16.1468 6.58615 15.9553 6.7283 15.805C6.87046 15.6547 7.05158 15.5524 7.24875 15.5109C7.44593 15.4694 7.65031 15.4907 7.83604 15.5721C8.02178 15.6534 8.18053 15.7912 8.29222 15.9679C8.40391 16.1446 8.46353 16.3524 8.46353 16.565C8.46353 16.85 8.35644 17.1234 8.16581 17.325C7.97519 17.5265 7.71664 17.6397 7.44706 17.6397ZM10.4965 17.6397C10.2954 17.6397 10.0989 17.5767 9.93175 17.4586C9.76459 17.3405 9.63431 17.1727 9.55737 16.9763C9.48044 16.7799 9.46031 16.5638 9.49953 16.3553C9.53875 16.1468 9.63556 15.9553 9.77772 15.805C9.91987 15.6547 10.101 15.5524 10.2982 15.5109C10.4953 15.4694 10.6997 15.4907 10.8855 15.5721C11.0712 15.6534 11.2299 15.7912 11.3416 15.9679C11.4533 16.1446 11.5129 16.3524 11.5129 16.565C11.5129 16.85 11.4058 17.1234 11.2152 17.325C11.0246 17.5265 10.7661 17.6397 10.4965 17.6397ZM19.3059 14.2364H5.75294V4.7917H19.3059V14.2364Z" fill="white"/>
</g>
</svg>
