<svg width="24" height="24" viewBox="0 0 24 24" fill="none" xmlns="http://www.w3.org/2000/svg">
<g opacity="0.3">
<path d="M16.7653 18.6255C16.0998 18.6255 15.4947 18.188 15.2527 17.5005C15.2527 17.438 15.2527 17.3755 15.1922 17.3755H9.80741C9.80741 17.438 9.80741 17.5005 9.7469 17.5005C9.56539 18.188 8.96036 18.6255 8.29482 18.6255C7.9318 18.6255 7.68979 18.8755 7.68979 19.2505C7.68979 19.6255 7.9318 19.8755 8.29482 19.8755H16.7653C17.1283 19.8755 17.3703 19.6255 17.3703 19.2505C17.3703 18.8755 17.1283 18.6255 16.7653 18.6255Z" fill="#F4BE2A"/>
<path d="M19.1854 3.00049H5.87464C4.84608 3.00049 4.05954 3.81298 4.05954 4.87546V14.2503C4.05954 15.3128 4.84608 16.1253 5.87464 16.1253H10.0494H14.9501H19.1854C20.2139 16.1253 21.0005 15.3128 21.0005 14.2503V4.87546C21.0005 3.81298 20.2139 3.00049 19.1854 3.00049ZM17.9753 10.5004H14.9501C14.7686 10.5004 14.5871 10.3754 14.4661 10.2504L13.9216 9.3754L13.135 11.3754C13.014 11.5629 12.772 11.7504 12.53 11.7504C12.288 11.7504 12.1065 11.6254 11.9855 11.3754L11.1384 9.62539L10.5334 10.2504C10.4124 10.4379 10.2914 10.5004 10.1099 10.5004H7.08471C6.72169 10.5004 6.47967 10.2504 6.47967 9.87539C6.47967 9.5004 6.72169 9.2504 7.08471 9.2504H9.86786L10.8964 8.18791C11.0174 8.06292 11.2594 8.00042 11.4409 8.00042C11.6225 8.06292 11.804 8.18791 11.8645 8.31291L12.4695 9.56289L13.1955 7.75042C13.256 7.56292 13.4981 7.37543 13.6796 7.37543C13.9216 7.37543 14.1031 7.43792 14.2241 7.62542L15.2527 9.2504H17.9753C18.3383 9.2504 18.5803 9.5004 18.5803 9.87539C18.5803 10.2504 18.3383 10.5004 17.9753 10.5004Z" fill="#F4BE2A"/>
</g>
<path d="M15.7064 19.7505C15.0409 19.7505 14.4359 19.313 14.1939 18.6255C14.1939 18.563 14.1939 18.5005 14.1333 18.5005H8.74855C8.74855 18.563 8.74855 18.6255 8.68805 18.6255C8.50654 19.313 7.90151 19.7505 7.23597 19.7505C6.87295 19.7505 6.63094 20.0005 6.63094 20.3755C6.63094 20.7505 6.87295 21.0005 7.23597 21.0005H15.7064C16.0695 21.0005 16.3115 20.7505 16.3115 20.3755C16.3115 20.0005 16.0695 19.7505 15.7064 19.7505Z" fill="#F4BE2A"/>
<path d="M18.1258 4.12549H4.8151C3.78654 4.12549 3 4.93798 3 6.00046V15.3753C3 16.4378 3.78654 17.2503 4.8151 17.2503H8.98983H13.8906H18.1258C19.1544 17.2503 19.9409 16.4378 19.9409 15.3753V6.00046C19.9409 4.93798 19.1544 4.12549 18.1258 4.12549ZM16.9158 11.6254H13.8906C13.7091 11.6254 13.5276 11.5004 13.4066 11.3754L12.862 10.5004L12.0755 12.5004C11.9545 12.6879 11.7125 12.8754 11.4705 12.8754C11.2285 12.8754 11.0469 12.7504 10.9259 12.5004L10.0789 10.7504L9.47386 11.3754C9.35285 11.5629 9.23184 11.6254 9.05033 11.6254H6.02517C5.66215 11.6254 5.42013 11.3754 5.42013 11.0004C5.42013 10.6254 5.66215 10.3754 6.02517 10.3754H8.80832L9.83688 9.31291C9.95788 9.18792 10.1999 9.12542 10.3814 9.12542C10.5629 9.18792 10.7444 9.31291 10.8049 9.43791L11.41 10.6879L12.136 8.87542C12.1965 8.68792 12.4385 8.50043 12.62 8.50043C12.862 8.50043 13.0436 8.56292 13.1646 8.75042L14.1931 10.3754H16.9158C17.2788 10.3754 17.5208 10.6254 17.5208 11.0004C17.5208 11.3754 17.2788 11.6254 16.9158 11.6254Z" fill="#F4BE2A"/>
</svg>
