<svg width="24" height="24" viewBox="0 0 24 24" fill="none" xmlns="http://www.w3.org/2000/svg">
<g opacity="0.3">
<path d="M16.7653 18.6253C16.0998 18.6253 15.4947 18.1878 15.2527 17.5003C15.2527 17.4378 15.2527 17.3753 15.1922 17.3753H9.80741C9.80741 17.4378 9.80741 17.5003 9.7469 17.5003C9.56539 18.1878 8.96036 18.6253 8.29482 18.6253C7.9318 18.6253 7.68979 18.8753 7.68979 19.2503C7.68979 19.6253 7.9318 19.8753 8.29482 19.8753H16.7653C17.1283 19.8753 17.3703 19.6253 17.3703 19.2503C17.3703 18.8753 17.1283 18.6253 16.7653 18.6253Z" fill="white"/>
<path d="M19.1854 3.00046H5.87464C4.84608 3.00046 4.05954 3.81295 4.05954 4.87543V14.2503C4.05954 15.3128 4.84608 16.1253 5.87464 16.1253H10.0494H14.9501H19.1854C20.2139 16.1253 21.0005 15.3128 21.0005 14.2503V4.87543C21.0005 3.81295 20.2139 3.00046 19.1854 3.00046ZM17.9753 10.5004H14.9501C14.7686 10.5004 14.5871 10.3754 14.4661 10.2504L13.9216 9.37537L13.135 11.3753C13.014 11.5628 12.772 11.7503 12.53 11.7503C12.288 11.7503 12.1065 11.6253 11.9855 11.3753L11.1384 9.62536L10.5334 10.2504C10.4124 10.4379 10.2914 10.5004 10.1099 10.5004H7.08471C6.72169 10.5004 6.47967 10.2504 6.47967 9.87536C6.47967 9.50037 6.72169 9.25037 7.08471 9.25037H9.86786L10.8964 8.18788C11.0174 8.06289 11.2594 8.00039 11.4409 8.00039C11.6225 8.06289 11.804 8.18788 11.8645 8.31288L12.4695 9.56286L13.1955 7.75039C13.256 7.56289 13.4981 7.3754 13.6796 7.3754C13.9216 7.3754 14.1031 7.43789 14.2241 7.62539L15.2527 9.25037H17.9753C18.3383 9.25037 18.5803 9.50037 18.5803 9.87536C18.5803 10.2504 18.3383 10.5004 17.9753 10.5004Z" fill="white"/>
</g>
<path d="M15.7064 19.7503C15.0409 19.7503 14.4359 19.3128 14.1939 18.6253C14.1939 18.5628 14.1939 18.5003 14.1333 18.5003H8.74855C8.74855 18.5628 8.74855 18.6253 8.68805 18.6253C8.50654 19.3128 7.90151 19.7503 7.23597 19.7503C6.87295 19.7503 6.63094 20.0003 6.63094 20.3752C6.63094 20.7502 6.87295 21.0002 7.23597 21.0002H15.7064C16.0695 21.0002 16.3115 20.7502 16.3115 20.3752C16.3115 20.0003 16.0695 19.7503 15.7064 19.7503Z" fill="white"/>
<path d="M18.1258 4.12543H4.8151C3.78654 4.12543 3 4.93792 3 6.0004V15.3753C3 16.4378 3.78654 17.2502 4.8151 17.2502H8.98983H13.8906H18.1258C19.1544 17.2502 19.9409 16.4378 19.9409 15.3753V6.0004C19.9409 4.93792 19.1544 4.12543 18.1258 4.12543ZM16.9158 11.6253H13.8906C13.7091 11.6253 13.5276 11.5003 13.4066 11.3753L12.862 10.5003L12.0755 12.5003C11.9545 12.6878 11.7125 12.8753 11.4705 12.8753C11.2285 12.8753 11.0469 12.7503 10.9259 12.5003L10.0789 10.7503L9.47386 11.3753C9.35285 11.5628 9.23184 11.6253 9.05033 11.6253H6.02517C5.66215 11.6253 5.42013 11.3753 5.42013 11.0003C5.42013 10.6253 5.66215 10.3753 6.02517 10.3753H8.80832L9.83688 9.31285C9.95788 9.18786 10.1999 9.12536 10.3814 9.12536C10.5629 9.18786 10.7444 9.31285 10.8049 9.43785L11.41 10.6878L12.136 8.87536C12.1965 8.68786 12.4385 8.50037 12.62 8.50037C12.862 8.50037 13.0436 8.56286 13.1646 8.75036L14.1931 10.3753H16.9158C17.2788 10.3753 17.5208 10.6253 17.5208 11.0003C17.5208 11.3753 17.2788 11.6253 16.9158 11.6253Z" fill="white"/>
</svg>
