<svg width="24" height="24" viewBox="0 0 24 24" fill="none" xmlns="http://www.w3.org/2000/svg">
<g opacity="0.3">
<path d="M21.3571 18.6158H4.64286C4.25714 18.6158 4 18.8928 4 19.3082C4 19.7235 4.25714 20.0005 4.64286 20.0005H21.3571C21.7429 20.0005 22 19.7235 22 19.3082C22 18.8928 21.7429 18.6158 21.3571 18.6158Z" fill="#F4BE2A"/>
<path d="M7.21415 17.2312H11.7141C12.0999 17.2312 12.357 16.9543 12.357 16.5389V8.23125C12.357 7.81586 12.0999 7.53894 11.7141 7.53894H7.21415C6.82843 7.53894 6.57129 7.81586 6.57129 8.23125V16.5389C6.57129 16.9543 6.82843 17.2312 7.21415 17.2312Z" fill="#F4BE2A"/>
<path d="M14.2854 17.2313H18.7854C19.1711 17.2313 19.4283 16.9543 19.4283 16.5389V2.6928C19.4283 2.27741 19.1711 2.00049 18.7854 2.00049H14.2854C13.8997 2.00049 13.6426 2.27741 13.6426 2.6928V16.5389C13.6426 16.9543 13.8997 17.2313 14.2854 17.2313Z" fill="#F4BE2A"/>
</g>
<path d="M20.3571 19.6158H3.64286C3.25714 19.6158 3 19.8928 3 20.3082C3 20.7235 3.25714 21.0005 3.64286 21.0005H20.3571C20.7429 21.0005 21 20.7235 21 20.3082C21 19.8928 20.7429 19.6158 20.3571 19.6158Z" fill="#F4BE2A"/>
<path d="M6.21415 18.2312H10.7141C11.0999 18.2312 11.357 17.9543 11.357 17.5389V9.23125C11.357 8.81586 11.0999 8.53894 10.7141 8.53894H6.21415C5.82843 8.53894 5.57129 8.81586 5.57129 9.23125V17.5389C5.57129 17.9543 5.82843 18.2312 6.21415 18.2312Z" fill="#F4BE2A"/>
<path d="M13.2854 18.2313H17.7854C18.1711 18.2313 18.4283 17.9543 18.4283 17.5389V3.6928C18.4283 3.27741 18.1711 3.00049 17.7854 3.00049H13.2854C12.8997 3.00049 12.6426 3.27741 12.6426 3.6928V17.5389C12.6426 17.9543 12.8997 18.2313 13.2854 18.2313Z" fill="#F4BE2A"/>
</svg>
