<svg width="24" height="24" viewBox="0 0 24 24" fill="none" xmlns="http://www.w3.org/2000/svg">
<path opacity="0.3" d="M12.9684 3.00046C9.1983 3.00046 6.11363 5.93258 6.11363 9.51629C6.11363 14.9896 12.283 19.6158 12.5572 19.8113C12.6943 19.8765 12.8313 19.9416 12.9684 19.9416C13.1055 19.9416 13.2426 19.8765 13.3797 19.8113C13.6539 19.6158 19.8233 14.9896 19.8233 9.51629C19.8233 5.93258 16.7386 3.00046 12.9684 3.00046ZM16.2588 7.88734L14.2709 13.4258C14.2023 13.6864 13.9281 13.8819 13.6539 13.8819C13.3797 13.8819 13.1055 13.7516 13.037 13.491L11.9402 11.1453L9.47249 10.1027C9.1983 9.9724 9.0612 9.77693 9.0612 9.45114C9.0612 9.1905 9.26685 8.92987 9.54104 8.86471L15.3676 7.04028C15.6418 6.97512 15.916 7.04028 16.0531 7.17059C16.1902 7.30091 16.3273 7.6267 16.2588 7.88734Z" fill="#F4BE2A"/>
<path d="M11.8548 4.0593C8.08467 4.0593 5 6.99142 5 10.5751C5 16.0484 11.1693 20.6747 11.4435 20.8702C11.5806 20.9353 11.7177 21.0005 11.8548 21.0005C11.9919 21.0005 12.129 20.9353 12.2661 20.8702C12.5403 20.6747 18.7096 16.0484 18.7096 10.5751C18.7096 6.99142 15.625 4.0593 11.8548 4.0593ZM15.1451 8.94617L13.1572 14.4846C13.0887 14.7453 12.8145 14.9407 12.5403 14.9407C12.2661 14.9407 11.9919 14.8104 11.9234 14.5498L10.8266 12.2041L8.35886 11.1616C8.08466 11.0312 7.94757 10.8358 7.94757 10.51C7.94757 10.2493 8.15321 9.98871 8.42741 9.92355L14.254 8.09911C14.5282 8.03396 14.8024 8.09911 14.9395 8.22943C15.0766 8.35975 15.2137 8.68554 15.1451 8.94617Z" fill="#F4BE2A"/>
</svg>
