<svg width="24" height="24" viewBox="0 0 24 24" fill="none" xmlns="http://www.w3.org/2000/svg">
<path opacity="0.3" d="M12.9695 3.00049C9.19932 3.00049 6.11465 5.93262 6.11465 9.51633C6.11465 14.9896 12.284 19.6159 12.5582 19.8113C12.6953 19.8765 12.8324 19.9417 12.9695 19.9417C13.1066 19.9417 13.2437 19.8765 13.3808 19.8113C13.6549 19.6159 19.8243 14.9896 19.8243 9.51633C19.8243 5.93262 16.7396 3.00049 12.9695 3.00049ZM16.2598 7.88737L14.2719 13.4258C14.2033 13.6865 13.9291 13.8819 13.6549 13.8819C13.3808 13.8819 13.1066 13.7516 13.038 13.491L11.9412 11.1453L9.47351 10.1028C9.19932 9.97243 9.06222 9.77696 9.06222 9.45117C9.06222 9.19053 9.26787 8.9299 9.54206 8.86474L15.3686 7.04031C15.6428 6.97515 15.917 7.04031 16.0541 7.17062C16.1912 7.30094 16.3283 7.62673 16.2598 7.88737Z" fill="white"/>
<path d="M11.8548 4.05933C8.08467 4.05933 5 6.99145 5 10.5752C5 16.0485 11.1693 20.6747 11.4435 20.8702C11.5806 20.9353 11.7177 21.0005 11.8548 21.0005C11.9919 21.0005 12.129 20.9353 12.2661 20.8702C12.5403 20.6747 18.7096 16.0485 18.7096 10.5752C18.7096 6.99145 15.625 4.05933 11.8548 4.05933ZM15.1451 8.9462L13.1572 14.4847C13.0887 14.7453 12.8145 14.9408 12.5403 14.9408C12.2661 14.9408 11.9919 14.8105 11.9234 14.5498L10.8266 12.2041L8.35886 11.1616C8.08466 11.0313 7.94757 10.8358 7.94757 10.51C7.94757 10.2494 8.15321 9.98874 8.42741 9.92358L14.254 8.09915C14.5282 8.03399 14.8024 8.09914 14.9395 8.22946C15.0766 8.35978 15.2137 8.68557 15.1451 8.9462Z" fill="white"/>
</svg>
